<svg xmlns="http://www.w3.org/2000/svg" width="80" height="80" viewBox="0 0 80 80">
    <g fill="none" fill-rule="evenodd">
        <path fill="#9E9E9E" d="M29.476 4.238c-1.33 1.125-2.7 2.218-3.772 3.386-.49.616-.989 1.384-1.019 2.468v.005c-.06 2.137 1.323 3.491 2.367 4.446a33.977 33.977 0 0 0 2.276 1.822c.244.113.513.172.782.172 1.602 0 3.168-.022 4.726-.037a158.318 158.318 0 0 1-4.134 9.726 1.857 1.857 0 0 0-.074 1.429 1.86 1.86 0 0 0 2.4 1.113 1.87 1.87 0 0 0 1.049-.977 161.939 161.939 0 0 0 4.742-11.296c.802.009 1.608.026 2.423.056 3.635 5.895 2.729 12.658-.747 17.476-.58.802-1.272 1.6-2.078 2.405a37.49 37.49 0 0 1-2.587 2.328c-1.153.948-6.774 3.99-6.774 9.939v26.523a1.857 1.857 0 0 0 1.861 1.855H64.67a1.868 1.868 0 0 0 1.316-.543 1.862 1.862 0 0 0 .545-1.312v-37.23c0-1.563-.542-2.923-1.248-3.991-.706-1.069-1.535-1.908-2.307-2.784-1.544-1.751-2.962-3.542-3.439-7.307-.538-4.207-.806-5.302-.897-7.45h2.916c1.989 0 3.713-.753 4.844-1.945 1.132-1.192 1.678-2.744 1.681-4.275.004-1.532-.536-3.089-1.669-4.283-1.133-1.194-2.86-1.946-4.856-1.946H30.364c-.309.002-.617.08-.888.227zM62.235 36.14c.393.615.574 1.106.574 1.855v35.374H32.778V48.7c0-3.398 2.908-5.128 4.984-6.73.009 0 .018 0 .028-.009l24.445-5.822z"/>
        <g fill="#9E9E9E" fill-rule="nonzero" transform="rotate(-20 171.642 -66.448)">
            <rect width="9.306" height="2.536" x="14.889" rx=".93"/>
            <rect width="3.226" height="2.536" x="10.236" rx=".93"/>
            <path d="M6.131 9.279l16.749.291a.93.93 0 0 1 .914.946l-.012.676a.93.93 0 0 1-.946.913l-16.749-.29a.93.93 0 0 1-.914-.947l.012-.676a.93.93 0 0 1 .946-.913z"/>
            <path d="M1.48 9.198l16.748.291a.93.93 0 0 1 .914.946l-.012.676a.93.93 0 0 1-.946.913l-16.749-.29a.93.93 0 0 1-.914-.947l.012-.676a.93.93 0 0 1 .946-.913z"/>
        </g>
        <path fill="#FFF" d="M30.496 7.494h31.915c1.124 0 1.73.34 2.151.785.421.444.654 1.072.652 1.725 0 .654-.237 1.286-.661 1.733-.425.447-1.03.785-2.142.785h-4.813a1.872 1.872 0 0 0-1.317.546c-.173.172-.31.378-.403.603-.093.225-.109.47-.14.711-.316 2.39.415 7.736 1.147 12.055.675 3.98 1.668 5.966 1.817 7.033l-16.866 4.213c-.056-.3 5.226-4.213 5.01-13.526-.153-6.524-1.422-8.589-1.896-9.537-.473-.95-.988-1.415-1.237-1.552-.248-.138-.833-.363-1.877-.413-1.044-.05-10.335-.117-11.34-.133-1.996-1.093-2.994-1.933-2.994-2.518 0-.532.998-1.369 2.994-2.51z"/>
        <rect width="10.236" height="3.711" x="10.375" y="8.422" fill="#9E9E9E" fill-rule="nonzero" rx="1.855"/>
        <rect width="5.583" height="3.711" x="2" y="8.422" fill="#9E9E9E" fill-rule="nonzero" rx="1.855"/>
        <path fill="#9E9E9E" fill-rule="nonzero" d="M13.539 15.118l4.444-4.752a1.86 1.86 0 0 1 2.625-.092l.003.003a1.853 1.853 0 0 1 .092 2.623l-4.445 4.752a1.86 1.86 0 0 1-2.625.091l-.003-.003a1.853 1.853 0 0 1-.091-2.622z"/>
        <path fill="#9E9E9E" fill-rule="nonzero" d="M16.258 2.903l4.445 4.751a1.853 1.853 0 0 1-.092 2.623l-.003.003a1.86 1.86 0 0 1-2.625-.092L13.54 5.436a1.853 1.853 0 0 1 .091-2.622l.003-.003a1.86 1.86 0 0 1 2.625.092z"/>
    </g>
</svg>
