<svg xmlns="http://www.w3.org/2000/svg" width="578.225" height="432.289" viewBox="0 69.612 578.225 432.289" enable-background="new 0 69.612 578.225 432.289"><path fill="#A3CF06" d="M318.2 162.2c-87.32 68.63-67.64 135.2-51.65 165.1-13.18 23.93-22.96 45.5-30.1 64.53-4.36-73.36-17.3-125.43-29.86-160.17 12.36-21.3 24.83-63.97-28.15-113.6C106.92 51.06 0 84.83 0 84.83c86.12 52.54 33.3 116.8 82.95 163.3 28.74 26.92 60.24 23.86 82.83 15.34-6.27-32.6-20.33-91.05-44.32-117.7 0 0 35.7 33.66 60.54 76.27 16.76 39.7 37.32 115.18 35.63 237.36.14 22.63.07 33.35.26 34.52.77 4.63 4.77 7.98 9.4 7.98.2 0 .4 0 .6-.02 4.88-.3 8.75-4.22 8.97-9.1.5-11.1.83-21.84 1-32.27 3.34-24.42 13.3-63.33 40.78-115.35.06.06.07.08.13.14 39.1-74.23 117.7-136.27 117.7-136.27-37.72 35.24-65.16 117.3-78.22 163.24 31.35 15.03 76.12 23.35 120.68-11.66 76.98-60.47 9.27-159.2 139.28-223.8 0 .02-149.1-61.72-260 25.4z"/></svg>